<svg xmlns="http://www.w3.org/2000/svg" viewBox="0 0 512 512">
  <defs>
    <linearGradient id="bgGrad" x1="0%" y1="0%" x2="100%" y2="100%">
      <stop offset="0%" style="stop-color:#313244"/>
      <stop offset="100%" style="stop-color:#1e1e2e"/>
    </linearGradient>
  </defs>
  <!-- Background -->
  <rect width="512" height="512" rx="96" fill="url(#bgGrad)"/>
  <!-- Cooking pot body -->
  <ellipse cx="256" cy="340" rx="140" ry="80" fill="#45475a"/>
  <rect x="116" y="260" width="280" height="80" fill="#45475a"/>
  <ellipse cx="256" cy="260" rx="140" ry="50" fill="#585b70"/>
  <!-- Pot handles -->
  <rect x="76" y="280" width="50" height="20" rx="10" fill="#6c7086"/>
  <rect x="386" y="280" width="50" height="20" rx="10" fill="#6c7086"/>
  <!-- Steam wisps -->
  <path d="M200 200 Q190 170 200 140 Q210 110 200 80" stroke="#cba6f7" stroke-width="12" stroke-linecap="round" fill="none" opacity="0.8"/>
  <path d="M256 190 Q246 155 256 120 Q266 85 256 50" stroke="#f5c2e7" stroke-width="12" stroke-linecap="round" fill="none" opacity="0.9"/>
  <path d="M312 200 Q322 170 312 140 Q302 110 312 80" stroke="#cba6f7" stroke-width="12" stroke-linecap="round" fill="none" opacity="0.8"/>
  <!-- Fork icon on pot -->
  <g transform="translate(220, 270)">
    <rect x="30" y="0" width="12" height="50" rx="3" fill="#cba6f7"/>
    <rect x="20" y="-30" width="8" height="35" rx="4" fill="#cba6f7"/>
    <rect x="32" y="-35" width="8" height="40" rx="4" fill="#cba6f7"/>
    <rect x="44" y="-30" width="8" height="35" rx="4" fill="#cba6f7"/>
  </g>
</svg>
